<svg width="117" height="259" viewBox="0 0 117 259" fill="none" xmlns="http://www.w3.org/2000/svg">
<path d="M113.4 116.866C113.32 116.699 113.24 116.616 113.24 116.616C111.557 112.945 107.552 104.018 106.351 98.0117C105.149 92.2552 103.066 86.5817 99.2215 82.3274C99.1413 82.2439 99.0611 82.2439 98.981 82.1604C97.9401 80.9923 97.1387 79.6577 96.8185 78.1561C95.7771 73.9847 93.8547 65.1415 93.3741 58.217C92.8133 49.7908 86.8056 43.4503 78.3146 42.1992C78.3146 42.1992 71.6659 37.2768 67.0198 36.8598L65.6581 27.8495C65.6581 27.8495 68.4616 23.3447 68.7021 20.3414C68.7021 20.3414 72.1465 17.9217 68.7021 13.4169C68.7021 13.4169 71.0249 1.57044 58.4486 0.402344C45.8723 1.57044 48.1952 13.4169 48.1952 13.4169C44.7508 17.9217 48.1952 20.3414 48.1952 20.3414C48.4357 23.3447 51.2391 27.8495 51.2391 27.8495L49.8775 36.8598C45.2314 37.2768 38.5826 42.1992 38.5826 42.1992C30.0917 43.4503 24.0839 49.7908 23.5231 58.217C23.0425 65.1415 21.1201 73.9847 20.0788 78.1561C19.7585 79.6577 18.9572 80.9923 17.9163 82.1604C17.8361 82.2439 17.7559 82.2439 17.6758 82.3274C13.8309 86.5817 11.7482 92.2552 10.5464 98.0117C9.34517 104.018 5.34 112.945 3.65765 116.616C3.65765 116.616 3.57747 116.699 3.49728 116.866C2.37621 118.368 -3.8721 127.712 3.65765 129.547C6.46107 130.214 8.14342 129.714 9.1848 128.713C9.90595 128.045 10.3866 127.127 10.5464 126.293C11.027 124.625 10.787 123.04 10.787 123.04C10.9468 121.288 11.3478 119.952 11.668 118.868C12.2288 117.366 13.0296 115.948 13.9908 114.697C22.8827 102.934 26.2469 94.7579 27.4486 90.0025C28.7301 85.3306 30.4921 80.9088 32.3348 76.4874C34.2323 71.988 34.9903 68.6968 35.2755 66.5388C35.3666 65.8491 36.2917 65.7374 36.5026 66.398C40.4693 78.824 38.7753 96.7394 37.4901 105.965C36.754 109.076 36.0249 112.158 35.2888 115.269C29.3457 133.095 30.4928 159.224 31.8542 174.347C32.3348 180.187 31.9344 186.027 30.5723 191.783C27.6887 203.296 28.7301 229.158 29.2909 239.92C29.4512 243.174 28.7301 246.344 27.2883 249.181L25.3659 252.852C21.7611 258.691 26.0063 258.691 26.0063 258.691H35.459C37.3814 258.691 38.9831 256.939 38.9034 254.854C38.3426 239.336 40.1046 227.907 40.9856 223.485C41.2262 222.15 41.7068 221.066 42.1874 219.814C45.1512 212.306 45.6318 197.373 45.712 191.7C45.712 190.448 45.9525 189.197 46.3529 187.945C58.2883 152.322 57.7475 134.219 57.7475 134.219H58.4486H59.1497C59.1497 134.219 58.609 152.322 70.5443 187.945C70.9447 189.197 71.1853 190.448 71.1853 191.7C71.2655 197.373 71.7461 212.306 74.7099 219.814C75.1905 221.066 75.6711 222.15 75.9116 223.485C76.7926 227.907 78.5547 239.336 77.9939 254.854C77.9142 256.939 79.5159 258.691 81.4383 258.691H90.8909C90.8909 258.691 95.1361 258.691 91.5314 252.852L89.609 249.181C88.1672 246.344 87.446 243.174 87.6064 239.92C88.1672 229.158 89.2086 203.296 86.325 191.783C84.9629 186.027 84.5624 180.187 85.043 174.347C86.4045 159.224 87.5516 133.095 81.6084 115.269C80.8724 112.158 80.1432 109.076 79.4072 105.965C78.122 96.7394 76.428 78.824 80.3946 66.398C80.6055 65.7374 81.5306 65.8491 81.6218 66.5388C81.9069 68.6968 82.6649 71.988 84.5624 76.4874C86.4052 80.9088 88.1672 85.3306 89.4486 90.0025C90.6504 94.7579 94.0146 102.934 102.906 114.697C103.868 115.948 104.668 117.366 105.229 118.868C105.549 119.952 105.95 121.288 106.11 123.04C106.271 124.041 106.351 125.042 106.351 126.293C106.511 127.127 106.991 128.045 107.712 128.713C108.754 129.714 110.436 130.214 113.24 129.547C120.769 127.712 114.521 118.368 113.4 116.866Z" fill="#77A55B"/>
</svg>
