<svg width="284" height="185" viewBox="0 0 284 185" fill="none" xmlns="http://www.w3.org/2000/svg">
<path d="M80.9906 83.199C80.9333 83.08 80.8761 83.0204 80.8761 83.0204C79.6745 80.3987 76.814 74.0232 75.9561 69.7334C75.0978 65.6221 73.6103 61.5701 70.8643 58.5316C70.807 58.472 70.7498 58.472 70.6925 58.4123C69.9491 57.5781 69.3768 56.6249 69.1481 55.5524C68.4043 52.5733 67.0313 46.2574 66.6881 41.3119C66.2875 35.2939 61.9968 30.7655 55.9325 29.8719C55.9325 29.8719 51.184 26.3563 47.8657 26.0585L46.8932 19.6234C46.8932 19.6234 48.8954 16.406 49.0672 14.2611C49.0672 14.2611 51.5272 12.5329 49.0672 9.31553C49.0672 9.31553 50.7262 0.854766 41.7442 0.0205078C32.7621 0.854765 34.4211 9.31553 34.4211 9.31553C31.9611 12.5329 34.4211 14.2611 34.4211 14.2611C34.5929 16.406 36.5951 19.6234 36.5951 19.6234L35.6227 26.0585C32.3044 26.3563 27.5558 29.8719 27.5558 29.8719C21.4916 30.7655 17.2008 35.2939 16.8003 41.3119C16.4571 46.2574 15.0841 52.5733 14.3403 55.5524C14.1116 56.6249 13.5393 57.5781 12.7959 58.4123C12.7386 58.472 12.6813 58.472 12.6241 58.5316C9.8781 61.5701 8.39058 65.6221 7.53229 69.7334C6.67435 74.0232 3.81384 80.3987 2.6123 83.0204C2.6123 83.0204 2.55504 83.08 2.49777 83.199C1.69709 84.2718 -2.76546 90.9451 2.6123 92.2558C4.61452 92.7325 5.81606 92.3751 6.55981 91.6601C7.07486 91.1833 7.41811 90.528 7.53229 89.9319C7.87554 88.7406 7.70409 87.6084 7.70409 87.6084C7.81827 86.3571 8.1046 85.4035 8.33332 84.6293C8.73383 83.5564 9.30579 82.5436 9.99228 81.6501C16.3429 73.2486 18.7456 67.4095 19.6039 64.0132C20.5191 60.6765 21.7775 57.5184 23.0936 54.3607C24.4488 51.1472 24.9902 48.7966 25.1939 47.2554C25.2589 46.7628 25.9197 46.683 26.0703 47.1548C28.9033 56.0295 27.6934 68.8248 26.7755 75.414C26.2498 77.6357 25.7291 79.8367 25.2034 82.0584C20.9588 94.7902 21.778 113.451 22.7504 124.252C23.0936 128.423 22.8076 132.594 21.8348 136.705C19.7753 144.928 20.5191 163.399 20.9196 171.085C21.0341 173.409 20.5191 175.673 19.4894 177.699L18.1164 180.32C15.5418 184.491 18.5738 184.491 18.5738 184.491H25.3249C26.6979 184.491 27.8418 183.24 27.7849 181.75C27.3844 170.668 28.6428 162.505 29.2721 159.347C29.4439 158.393 29.7871 157.619 30.1304 156.725C32.2471 151.363 32.5903 140.697 32.6476 136.646C32.6476 135.752 32.8194 134.858 33.1054 133.964C41.6297 108.522 41.2435 95.5924 41.2435 95.5924H41.7442H42.2449C42.2449 95.5924 41.8587 108.522 50.383 133.964C50.6689 134.858 50.8407 135.752 50.8407 136.646C50.898 140.697 51.2413 151.363 53.358 156.725C53.7012 157.619 54.0445 158.393 54.2163 159.347C54.8455 162.505 56.104 170.668 55.7035 181.75C55.6465 183.24 56.7905 184.491 58.1635 184.491H64.9146C64.9146 184.491 67.9465 184.491 65.372 180.32L63.999 177.699C62.9693 175.673 62.4542 173.409 62.5688 171.085C62.9693 163.399 63.713 144.928 61.6535 136.705C60.6807 132.594 60.3947 128.423 60.738 124.252C61.7103 113.451 62.5296 94.7902 58.285 82.0584C57.7593 79.8367 57.2385 77.6357 56.7129 75.414C55.7949 68.8248 54.5851 56.0295 57.4181 47.1548C57.5687 46.683 58.2294 46.7628 58.2945 47.2554C58.4982 48.7966 59.0395 51.1472 60.3947 54.3607C61.7108 57.5184 62.9693 60.6765 63.8845 64.0132C64.7428 67.4095 67.1455 73.2486 73.4961 81.6501C74.1826 82.5436 74.7545 83.5564 75.1551 84.6293C75.3838 85.4035 75.6701 86.3571 75.7843 87.6084C75.8988 88.3234 75.9561 89.0384 75.9561 89.9319C76.0703 90.528 76.4135 91.1833 76.9285 91.6601C77.6723 92.3751 78.8738 92.7325 80.8761 92.2558C86.2538 90.9451 81.7913 84.2718 80.9906 83.199Z" fill="black"/>
<path d="M223.944 116.4C223.905 116.32 223.867 116.28 223.867 116.28C223.059 114.518 221.136 110.232 220.559 107.348C219.982 104.585 218.982 101.861 217.137 99.8183C217.098 99.7782 217.06 99.7782 217.021 99.7381C216.521 99.1773 216.137 98.5366 215.983 97.8156C215.483 95.813 214.56 91.5673 214.329 88.2428C214.06 84.1974 211.176 81.1533 207.099 80.5526C207.099 80.5526 203.907 78.1894 201.676 77.9892L201.023 73.6633C201.023 73.6633 202.369 71.5005 202.484 70.0587C202.484 70.0587 204.138 68.897 202.484 66.7342C202.484 66.7342 203.599 61.0466 197.561 60.4858C191.523 61.0466 192.639 66.7342 192.639 66.7342C190.985 68.897 192.639 70.0587 192.639 70.0587C192.754 71.5005 194.1 73.6633 194.1 73.6633L193.446 77.9892C191.216 78.1894 188.024 80.5526 188.024 80.5526C183.947 81.1533 181.063 84.1974 180.794 88.2428C180.563 91.5673 179.64 95.813 179.14 97.8156C178.986 98.5366 178.601 99.1773 178.102 99.7381C178.063 99.7782 178.025 99.7782 177.986 99.8183C176.14 101.861 175.14 104.585 174.563 107.348C173.987 110.232 172.064 114.518 171.256 116.28C171.256 116.28 171.218 116.32 171.179 116.4C170.641 117.121 167.641 121.607 171.256 122.488C172.602 122.809 173.41 122.569 173.91 122.088C174.256 121.768 174.487 121.327 174.563 120.926C174.794 120.125 174.679 119.364 174.679 119.364C174.756 118.523 174.948 117.882 175.102 117.362C175.371 116.641 175.756 115.96 176.217 115.359C180.486 109.711 182.101 105.786 182.678 103.503C183.293 101.26 184.139 99.1372 185.024 97.0145C185.935 94.8544 186.299 93.2742 186.436 92.2382C186.48 91.9071 186.924 91.8534 187.025 92.1706C188.929 98.1363 188.116 106.738 187.499 111.167C187.146 112.66 186.796 114.14 186.442 115.634C183.589 124.192 184.14 136.737 184.793 143.997C185.024 146.801 184.832 149.605 184.178 152.368C182.793 157.896 183.293 170.312 183.563 175.479C183.64 177.041 183.293 178.563 182.601 179.925L181.678 181.687C179.948 184.491 181.986 184.491 181.986 184.491H186.524C187.447 184.491 188.216 183.65 188.178 182.649C187.908 175.199 188.754 169.711 189.177 167.589C189.293 166.948 189.524 166.427 189.754 165.826C191.177 162.221 191.408 155.052 191.446 152.328C191.446 151.727 191.562 151.127 191.754 150.526C197.484 133.423 197.225 124.731 197.225 124.731H197.561H197.898C197.898 124.731 197.638 133.423 203.369 150.526C203.561 151.127 203.676 151.727 203.676 152.328C203.715 155.052 203.946 162.221 205.368 165.826C205.599 166.427 205.83 166.948 205.945 167.589C206.368 169.711 207.214 175.199 206.945 182.649C206.907 183.65 207.676 184.491 208.599 184.491H213.137C213.137 184.491 215.175 184.491 213.445 181.687L212.522 179.925C211.829 178.563 211.483 177.041 211.56 175.479C211.829 170.312 212.329 157.896 210.945 152.368C210.291 149.605 210.099 146.801 210.329 143.997C210.983 136.737 211.534 124.192 208.68 115.634C208.327 114.14 207.977 112.66 207.624 111.167C207.007 106.738 206.193 98.1363 208.098 92.1706C208.199 91.8534 208.643 91.9071 208.687 92.2382C208.824 93.2742 209.188 94.8544 210.099 97.0145C210.983 99.1372 211.829 101.26 212.445 103.503C213.022 105.786 214.637 109.711 218.906 115.359C219.367 115.96 219.752 116.641 220.021 117.362C220.175 117.882 220.367 118.523 220.444 119.364C220.521 119.845 220.559 120.326 220.559 120.926C220.636 121.327 220.867 121.768 221.213 122.088C221.713 122.569 222.521 122.809 223.867 122.488C227.482 121.607 224.482 117.121 223.944 116.4Z" fill="black"/>
<path d="M128.257 146.919H141.292L141.284 177.327C141.279 187.298 129.042 187.291 129.046 177.322L128.257 146.919ZM111.428 146.919H124.463L123.674 177.322C123.678 187.291 111.441 187.296 111.436 177.327L111.428 146.919ZM149.693 144.3L148.483 144.298H107.845L103.03 144.3H101.384L114.069 82.936L112.723 67.4972L105.343 99.8418C104.004 105.427 95.8737 103.847 96.9968 98.0447L106.203 51.9906C106.203 51.9906 109.056 39.1271 119.165 38.7926L119.562 38.7882H133.063L133.456 38.7926C143.576 39.1118 146.424 51.9906 146.424 51.9906L155.633 98.0447C156.756 103.847 148.626 105.427 147.287 99.8418L139.972 67.7923L138.651 82.936L151.338 144.3H149.693ZM126.315 9.24414C132.572 9.24414 137.646 14.5281 137.646 21.0452C137.646 27.5665 132.572 32.8506 126.315 32.8506C120.055 32.8506 114.98 27.5665 114.98 21.0452C114.98 14.5281 120.055 9.24414 126.315 9.24414Z" fill="black"/>
<path d="M266.163 161.072H274.328L274.323 180.119C274.32 186.365 266.655 186.361 266.657 180.117L266.163 161.072ZM255.622 161.072H263.787L263.293 180.117C263.295 186.361 255.63 186.364 255.627 180.119L255.622 161.072ZM279.59 159.432L278.833 159.43H253.377L250.361 159.432H249.33L257.276 120.994L256.433 111.323L251.81 131.583C250.971 135.082 245.879 134.092 246.582 130.458L252.349 101.61C252.349 101.61 254.136 93.552 260.468 93.3425L260.717 93.3397H269.174L269.42 93.3425C275.759 93.5424 277.543 101.61 277.543 101.61L283.311 130.458C284.015 134.092 278.922 135.082 278.084 131.583L273.501 111.508L272.674 120.994L280.621 159.432H279.59ZM264.947 74.8335C268.866 74.8335 272.044 78.1434 272.044 82.2256C272.044 86.3105 268.866 89.6204 264.947 89.6204C261.026 89.6204 257.847 86.3105 257.847 82.2256C257.847 78.1434 261.026 74.8335 264.947 74.8335Z" fill="black"/>
</svg>
