<svg width="17" height="25" viewBox="0 0 17 25" fill="none" xmlns="http://www.w3.org/2000/svg">
<path fill-rule="evenodd" clip-rule="evenodd" d="M16.238 3.7516L13.5913 1.02222V3.19015C13.5913 3.50391 13.8348 3.75749 14.136 3.75749L16.238 3.7516ZM0.150616 0.647221C0.253676 0.535169 0.395241 0.472656 0.544741 0.472656H12.8666V3.19024C12.8677 3.92507 13.4396 4.5207 14.1452 4.52191H16.7545V23.4577C16.7534 23.6087 16.6945 23.7549 16.5914 23.8611C16.4872 23.9672 16.3468 24.0262 16.2007 24.025H0.544741C0.24461 24.0239 0.00113071 23.7703 0 23.4577V1.04944C0 0.898462 0.0588896 0.753383 0.161949 0.647237L0.150616 0.647221ZM11.527 6.66271H1.97744C1.78717 6.6804 1.64106 6.84553 1.64106 7.04486C1.64106 7.24301 1.78716 7.40932 1.97744 7.42701H11.527C11.6301 7.43645 11.732 7.39988 11.809 7.32793C11.8849 7.2548 11.9279 7.15219 11.9279 7.04485C11.9279 6.93752 11.8849 6.8349 11.809 6.76177C11.732 6.68864 11.6301 6.65327 11.527 6.66271ZM14.7591 6.66271H13.3774C13.2744 6.65327 13.1724 6.68865 13.0954 6.76178C13.0195 6.83491 12.9765 6.93753 12.9765 7.04486C12.9765 7.1522 13.0195 7.25481 13.0954 7.32794C13.1724 7.39989 13.2744 7.43646 13.3774 7.42702H14.7512C14.9414 7.40933 15.0864 7.24302 15.0864 7.04487C15.0864 6.84553 14.9414 6.68041 14.7512 6.66272L14.7591 6.66271ZM4.45311 9.54896H1.97741C1.78714 9.56665 1.64104 9.73296 1.64104 9.93111C1.64104 10.1304 1.78713 10.2956 1.97741 10.3133H4.45311C4.64337 10.2956 4.78832 10.1304 4.78832 9.93111C4.78832 9.73295 4.64336 9.56665 4.45311 9.54896ZM14.7602 9.54896H6.30022C6.19716 9.53952 6.09524 9.57609 6.01822 9.64803C5.94235 9.72116 5.89931 9.82378 5.89931 9.93112C5.89931 10.0385 5.94235 10.1411 6.01822 10.2142C6.09523 10.2873 6.19716 10.3227 6.30022 10.3133H14.751C14.9412 10.2956 15.0862 10.1305 15.0862 9.93112C15.0862 9.73296 14.9412 9.56666 14.751 9.54897L14.7602 9.54896ZM14.7602 12.4446H1.97744C1.78717 12.4623 1.64106 12.6286 1.64106 12.8268C1.64106 13.0261 1.78716 13.1912 1.97744 13.2089H14.7513C14.9415 13.1912 15.0865 13.0261 15.0865 12.8268C15.0865 12.6286 14.9415 12.4623 14.7513 12.4446H14.7602ZM8.46916 15.3403H1.97744C1.78717 15.358 1.64106 15.5243 1.64106 15.7225C1.64106 15.9218 1.78716 16.0869 1.97744 16.1046H8.46799C8.65826 16.0869 8.80437 15.9218 8.80437 15.7225C8.80437 15.5243 8.65827 15.358 8.46799 15.3403H8.46916ZM14.7602 15.3403H10.3151C10.212 15.3309 10.1101 15.3674 10.0342 15.4394C9.95836 15.5125 9.9142 15.6151 9.9142 15.7225C9.9142 15.831 9.95836 15.9336 10.0342 16.0055C10.1101 16.0787 10.212 16.1141 10.3151 16.1046H14.7513C14.9415 16.0869 15.0865 15.9218 15.0865 15.7225C15.0865 15.5243 14.9415 15.358 14.7513 15.3403L14.7602 15.3403ZM14.7602 18.2324L1.97744 18.2336C1.78717 18.2513 1.64106 18.4164 1.64106 18.6158C1.64106 18.8139 1.78716 18.9802 1.97744 18.9979H14.7513C14.9415 18.9802 15.0865 18.8139 15.0865 18.6158C15.0865 18.4164 14.9415 18.2513 14.7513 18.2336L14.7602 18.2324ZM6.16106 21.1293H1.97744C1.78717 21.147 1.64106 21.3121 1.64106 21.5115C1.64106 21.7096 1.78716 21.8759 1.97744 21.8936H6.16106C6.26412 21.9031 6.36605 21.8665 6.44192 21.7946C6.5178 21.7214 6.56197 21.6188 6.56197 21.5115C6.56197 21.4041 6.5178 21.3015 6.44192 21.2284C6.36605 21.1553 6.26412 21.1199 6.16106 21.1293ZM14.7602 21.1293H8.00701C7.81788 21.147 7.6718 21.3121 7.6718 21.5115C7.6718 21.7096 7.8179 21.8759 8.00701 21.8936H14.7513C14.9415 21.8759 15.0865 21.7096 15.0865 21.5115C15.0865 21.3121 14.9415 21.147 14.7513 21.1293H14.7602ZM11.5064 3.75764H1.97744C1.78717 3.77534 1.64106 3.94165 1.64106 4.1398C1.64106 4.33913 1.78716 4.50425 1.97744 4.52195H11.5064C11.6095 4.53138 11.7114 4.496 11.7884 4.42287C11.8643 4.34974 11.9073 4.24712 11.9073 4.13979C11.9073 4.03245 11.8643 3.92984 11.7884 3.85671C11.7114 3.78476 11.6095 3.7482 11.5064 3.75764Z" fill="#AB0D0E"/>
</svg>
