<svg width="29" height="20" viewBox="0 0 29 20" fill="none" xmlns="http://www.w3.org/2000/svg">
<path d="M14.3754 14.0775C16.4856 14.0775 18.2059 12.2859 18.2059 10.0881C18.2059 7.89025 16.4856 6.09863 14.3754 6.09863C14.0933 6.09863 13.8013 6.13613 13.5092 6.20488L12.9212 6.34862L13.1572 6.92983C13.2292 7.10482 13.2652 7.29232 13.2652 7.49024C13.2652 8.28397 12.6452 8.92976 11.883 8.92976C11.699 8.92976 11.515 8.89226 11.345 8.81726L10.7869 8.57144L10.6489 9.18389C10.5829 9.48805 10.5469 9.79219 10.5469 10.0859C10.5449 12.2859 12.2671 14.0775 14.3754 14.0775Z" fill="#0070C0"/>
<path d="M0 10.0904L0.0960132 10.3508C2.22633 16.0776 7.96705 19.9233 14.3782 19.9233C20.7893 19.9233 26.5296 16.0776 28.6603 10.3508L28.7583 10.0904L28.6603 9.83002C26.53 4.09475 20.7954 0.249023 14.3782 0.249023C7.9609 0.249023 2.22674 4.09891 0.0960132 9.82148L0 10.0904ZM14.3318 3.49279C17.7683 3.49279 20.5525 6.39477 20.5525 9.97149C20.5525 13.5505 17.7661 16.4502 14.3318 16.4502C10.8974 16.4523 8.11119 13.5503 8.11119 9.97149C8.11119 6.39248 10.8976 3.49279 14.3318 3.49279Z" fill="#0070C0"/>
</svg>
