<svg width="50" height="41" viewBox="0 0 50 41" fill="none" xmlns="http://www.w3.org/2000/svg">
<path d="M9.03859 10.74H11.7486C12.1786 11.73 13.1486 13.7 14.6986 15.61C13.5086 16.77 12.0486 17.74 10.3386 18.11C9.79859 18.23 9.45859 18.76 9.57859 19.3C9.67859 19.77 10.0986 20.09 10.5586 20.09C10.6286 20.09 10.6986 20.08 10.7686 20.07C12.8886 19.61 14.6386 18.46 16.0586 17.09C17.4786 18.45 19.2286 19.6 21.3486 20.07C21.4186 20.09 21.4886 20.09 21.5586 20.09C22.0186 20.09 22.4286 19.77 22.5386 19.3C22.6586 18.76 22.3186 18.23 21.7786 18.11C20.0586 17.74 18.6086 16.77 17.4186 15.61C18.9686 13.7 19.9286 11.74 20.3686 10.74H23.0786C23.6286 10.74 24.0786 10.29 24.0786 9.74C24.0786 9.19 23.6286 8.74 23.0786 8.74H17.0686V6.75C17.0686 6.2 16.6186 5.75 16.0686 5.75C15.5186 5.75 15.0686 6.2 15.0686 6.75V8.74H9.05859C8.50859 8.74 8.05859 9.19 8.05859 9.74C8.05859 10.29 8.48859 10.74 9.03859 10.74ZM16.0486 14.09C15.0986 12.87 14.4086 11.64 13.9586 10.74H18.1386C17.6886 11.65 16.9886 12.88 16.0486 14.09Z" fill="white"/>
<path d="M33.1511 30.7496C33.6611 30.9596 34.2411 30.7196 34.4611 30.2096L35.6711 27.3096H40.9811L42.1911 30.2096C42.3511 30.5896 42.7211 30.8196 43.1111 30.8196C43.2411 30.8196 43.3711 30.7896 43.5011 30.7396C44.0111 30.5296 44.2511 29.9396 44.0411 29.4296L42.5711 25.9196C42.5711 25.9196 42.5711 25.9096 42.5611 25.9096L39.2411 17.9796C39.0811 17.6096 38.7211 17.3696 38.3211 17.3696C37.9211 17.3696 37.5511 17.6096 37.4011 17.9796L34.0811 25.9196L32.6111 29.4296C32.4011 29.9496 32.6411 30.5396 33.1511 30.7496ZM38.3211 20.9696L40.1411 25.3196H36.5011L38.3211 20.9696Z" fill="white"/>
<path d="M4.77 25.85H5.47V30.39C5.47 30.79 5.71 31.16 6.09 31.31C6.21 31.36 6.34 31.39 6.47 31.39C6.73 31.39 6.99 31.29 7.18 31.1L12.42 25.86H22V31.16C22 33.51 23.91 35.42 26.26 35.42H39.08L43.57 39.91C43.76 40.1 44.02 40.2 44.28 40.2C44.41 40.2 44.54 40.18 44.66 40.12C45.03 39.97 45.28 39.6 45.28 39.2V35.42H45.74C48.09 35.42 50 33.51 50 31.16V17.06C50 14.71 48.09 12.8 45.74 12.8H32.1V4.77004C32.1 2.14004 29.96 3.49046e-05 27.33 3.49046e-05H4.77C2.14 -0.00996509 0 2.13003 0 4.76004V21.08C0 23.71 2.14 25.85 4.77 25.85ZM45.74 14.79C46.99 14.79 48 15.8 48 17.05V31.15C48 32.4 46.99 33.41 45.74 33.41H44.28C43.73 33.41 43.28 33.86 43.28 34.41V36.78L40.2 33.7C40.01 33.51 39.76 33.41 39.49 33.41H26.26C25.01 33.41 24 32.4 24 31.15V25.85H27.33C29.96 25.85 32.1 23.71 32.1 21.08V14.79H45.74ZM2 4.76004C2 3.23004 3.24 1.99003 4.77 1.99003H27.32C28.85 1.99003 30.09 3.23004 30.09 4.76004V21.08C30.09 22.61 28.85 23.85 27.32 23.85H12C11.73 23.85 11.48 23.96 11.29 24.14L7.46 27.97V24.85C7.46 24.3 7.01 23.85 6.46 23.85H4.76C3.24 23.85 2 22.61 2 21.08V4.76004Z" fill="white"/>
</svg>
