<svg width="25" height="28" viewBox="0 0 25 28" fill="none" xmlns="http://www.w3.org/2000/svg">
<path d="M6.338 17.0688H5.17969V18.764H6.338C6.80306 18.764 7.17095 18.3621 7.17095 17.9398C7.17008 17.4639 6.80306 17.0688 6.338 17.0688Z" fill="#6D0791"/>
<path d="M10.9951 17.1016H9.84375V20.1512H10.9951C12.8684 20.1512 12.9508 17.1016 10.9951 17.1016Z" fill="#6D0791"/>
<path d="M20.4403 13.3198H1.35203C0.874818 13.3198 0.484375 13.7029 0.484375 14.1712V22.6851C0.484375 23.1534 0.874818 23.5365 1.35203 23.5365H20.4403C20.9184 23.5365 21.308 23.1534 21.308 22.6851V14.1712C21.308 13.7029 20.9184 13.3198 20.4403 13.3198ZM6.34102 19.6142H5.1827V20.5132C5.1827 20.8129 4.98835 20.9823 4.73847 20.9823C4.50941 20.9823 4.26733 20.8129 4.26733 20.5124V16.6803C4.26733 16.4555 4.4478 16.2094 4.73847 16.2094H6.34102C7.24337 16.2094 8.05549 16.802 8.05549 17.9386C8.05463 19.0148 7.24337 19.6142 6.34102 19.6142ZM11.0654 20.9823H9.41423C9.18517 20.9823 8.93529 20.8589 8.93529 20.56V16.6939C8.93529 16.4487 9.18517 16.2716 9.41423 16.2716H11.0029C14.1733 16.2716 14.1039 20.9823 11.0654 20.9823ZM17.2474 17.1562H15.2275V18.2383H16.9966C17.2474 18.2383 17.4964 18.4835 17.4964 18.7219C17.4964 18.9467 17.2474 19.1297 16.9966 19.1297H15.2275V20.5592C15.2275 20.7976 15.0548 20.9815 14.8119 20.9815C14.5065 20.9815 14.3191 20.7976 14.3191 20.5592V16.693C14.3191 16.4478 14.5073 16.2707 14.8119 16.2707H17.2474C17.5528 16.2707 17.7324 16.4478 17.7324 16.693C17.7324 16.9118 17.5528 17.1562 17.2474 17.1562Z" fill="#6D0791"/>
<path d="M23.9247 7.00845L18.2104 1.40119C17.7089 0.907389 16.8273 0.549805 16.1159 0.549805H6.5717C5.13661 0.549805 3.96875 1.69578 3.96875 3.10398V11.6179C3.96875 12.0887 4.35659 12.4693 4.8364 12.4693C5.31621 12.4693 5.70405 12.0887 5.70405 11.6179V3.10398C5.70405 2.63486 6.09276 2.25259 6.5717 2.25259H14.3806C15.3393 2.25259 16.1159 3.01543 16.1159 3.95537V7.14808C16.1159 8.2021 16.9957 9.06371 18.0681 9.06371H21.3218C22.2805 9.06371 23.0571 9.82655 23.0571 10.7665V25.2401C23.0571 25.7092 22.6692 26.0915 22.1894 26.0915H6.5717C6.09276 26.0915 5.70405 25.7092 5.70405 25.2401C5.70405 24.7693 5.31621 24.3887 4.8364 24.3887C4.35659 24.3887 3.96875 24.7693 3.96875 25.2401C3.96875 26.6483 5.13661 27.7943 6.5717 27.7943H22.1894C23.6245 27.7943 24.7924 26.6483 24.7924 25.2401V9.06371C24.7924 8.36642 24.4279 7.50141 23.9247 7.00845Z" fill="#6D0791"/>
</svg>
