<svg width="28" height="34" viewBox="0 0 28 34" fill="none" xmlns="http://www.w3.org/2000/svg">
<path d="M6.74906 20.2065H5.41406V22.2801H6.74906C7.28506 22.2801 7.70906 21.7886 7.70906 21.272C7.70806 20.6898 7.28506 20.2065 6.74906 20.2065Z" fill="#F10000"/>
<path d="M12.1239 20.2485H10.7969V23.9791H12.1239C14.2829 23.9791 14.3779 20.2485 12.1239 20.2485Z" fill="#F10000"/>
<path d="M23 15.6221H1C0.45 15.6221 0 16.0907 0 16.6636V27.0784C0 27.6512 0.45 28.1199 1 28.1199H23C23.551 28.1199 24 27.6512 24 27.0784V16.6636C24 16.0907 23.551 15.6221 23 15.6221ZM6.75 23.3218H5.415V24.4216C5.415 24.7882 5.191 24.9955 4.903 24.9955C4.639 24.9955 4.36 24.7882 4.36 24.4205V19.7328C4.36 19.4579 4.568 19.1569 4.903 19.1569H6.75C7.79 19.1569 8.726 19.8817 8.726 21.2721C8.725 22.5886 7.79 23.3218 6.75 23.3218ZM12.195 24.9955H10.292C10.028 24.9955 9.74 24.8444 9.74 24.4789V19.7495C9.74 19.4495 10.028 19.2329 10.292 19.2329H12.123C15.777 19.2329 15.697 24.9955 12.195 24.9955ZM19.32 20.315H16.992V21.6387H19.031C19.32 21.6387 19.607 21.9387 19.607 22.2303C19.607 22.5053 19.32 22.7292 19.031 22.7292H16.992V24.4778C16.992 24.7694 16.793 24.9944 16.513 24.9944C16.161 24.9944 15.945 24.7694 15.945 24.4778V19.7484C15.945 19.4485 16.162 19.2319 16.513 19.2319H19.32C19.672 19.2319 19.879 19.4485 19.879 19.7484C19.879 20.0161 19.672 20.315 19.32 20.315Z" fill="#F10000"/>
<path d="M27 7.90072L20.414 1.04149C19.836 0.437424 18.82 0 18 0H7C5.346 0 4 1.40184 4 3.12446V13.5393C4 14.1153 4.447 14.5808 5 14.5808C5.553 14.5808 6 14.1153 6 13.5393V3.12446C6 2.5506 6.448 2.08297 7 2.08297H16C17.105 2.08297 18 3.01615 18 4.16595V8.07152C18 9.36088 19.014 10.4149 20.25 10.4149H24C25.105 10.4149 26 11.348 26 12.4978V30.2031C26 30.777 25.553 31.2446 25 31.2446H7C6.448 31.2446 6 30.777 6 30.2031C6 29.6272 5.553 29.1616 5 29.1616C4.447 29.1616 4 29.6272 4 30.2031C4 31.9257 5.346 33.3276 7 33.3276H25C26.654 33.3276 28 31.9257 28 30.2031V10.4149C28 9.56189 27.58 8.50374 27 7.90072Z" fill="#F10000"/>
</svg>
