<svg width="22" height="22" viewBox="0 0 22 22" fill="none" xmlns="http://www.w3.org/2000/svg">
<path fill-rule="evenodd" clip-rule="evenodd" d="M11 0C17.0751 0 22 4.92485 22 11C22 17.0751 17.0751 22 11 22C4.92485 22 0 17.0751 0 11C0 4.92485 4.92485 0 11 0ZM9.96911 4.16851V9.96923H4.16839C3.59879 9.96923 3.13656 10.4305 3.13656 11.0001C3.13656 11.5697 3.59879 12.0319 4.16839 12.0319H9.96911V17.8327C9.96911 18.4023 10.4304 18.8636 11 18.8636C11.5696 18.8636 12.0309 18.4023 12.0309 17.8327V12.0319H17.8316C18.4012 12.0319 18.8625 11.5697 18.8625 11.0001C18.8625 10.4305 18.4012 9.96923 17.8316 9.96923H12.0309V4.16851C12.0309 3.5989 11.5687 3.13668 11 3.13668C10.4304 3.13668 9.96911 3.5989 9.96911 4.16851Z" fill="#121696"/>
</svg>
